# xmcd
#
# Track frame offsets:
#	150
#	9923
#	24686
#	35826
#	46808
#	59475
#	76870
#	82092
#	89683
#	99531
#	109460
#	117115
#
# Disc length: 1742 seconds
#
# Revision: 1
# Processed by: cddbd v1.5.2PL0 Copyright (c) Steve Scherf et al.
# Submitted via: audiograbber 1.83.01
#
DISCID=9906cc0c
DTITLE=Mickey Gilley - Mickey Gilley
DYEAR=1900
DGENRE=Country
TTITLE0=True Love Ways
TTITLE1=Stand By Me
TTITLE2=That's All That Matters
TTITLE3=You don't Know Me
TTITLE4=A Headache Tomorrow (or a heartache tonight)
TTITLE5=Doo-wah Days
TTITLE6=Here Comes The Hurt Again
TTITLE7=Lookin' For Love
TTITLE8=Talk To Me
TTITLE9=Put Your Dreams Away
TTITLE10=Window Up Above
TTITLE11=Don't the Girls All Get Better At Closing Time
EXTD=
EXTT0=
EXTT1=
EXTT2=
EXTT3=
EXTT4=
EXTT5=
EXTT6=
EXTT7=
EXTT8=
EXTT9=
EXTT10=
EXTT11=
PLAYORDER=
